<?xml version="1.0" encoding="UTF-8" standalone="no"?>
<!-- Created with Inkscape (http://www.inkscape.org/) -->

<svg
   xmlns:dc="http://purl.org/dc/elements/1.1/"
   xmlns:cc="http://creativecommons.org/ns#"
   xmlns:rdf="http://www.w3.org/1999/02/22-rdf-syntax-ns#"
   xmlns:svg="http://www.w3.org/2000/svg"
   xmlns="http://www.w3.org/2000/svg"
   xmlns:xlink="http://www.w3.org/1999/xlink"
   xmlns:sodipodi="http://sodipodi.sourceforge.net/DTD/sodipodi-0.dtd"
   xmlns:inkscape="http://www.inkscape.org/namespaces/inkscape"
   width="144"
   height="168"
   id="svg3059"
   version="1.1"
   inkscape:version="0.48.2 r9819"
   sodipodi:docname="drawing2.svg"
   inkscape:export-filename="/Users/cleigh/Desktop/drawing2xx.png"
   inkscape:export-xdpi="90"
   inkscape:export-ydpi="90">
  <defs
     id="defs3061">
    <color-profile
       name="Generic-RGB-Profile"
       xlink:href="/System/Library/ColorSync/Profiles/Generic RGB Profile.icc"
       id="color-profile5718" />
  </defs>
  <sodipodi:namedview
     id="base"
     pagecolor="#ffffff"
     bordercolor="#666666"
     borderopacity="1.0"
     inkscape:pageopacity="0.0"
     inkscape:pageshadow="2"
     inkscape:zoom="2.4117392"
     inkscape:cx="149.8061"
     inkscape:cy="75.847865"
     inkscape:document-units="px"
     inkscape:current-layer="layer1"
     showgrid="false"
     inkscape:window-width="1440"
     inkscape:window-height="791"
     inkscape:window-x="0"
     inkscape:window-y="0"
     inkscape:window-maximized="0" />
  <metadata
     id="metadata3064">
    <rdf:RDF>
      <cc:Work
         rdf:about="">
        <dc:format>image/svg+xml</dc:format>
        <dc:type
           rdf:resource="http://purl.org/dc/dcmitype/StillImage" />
        <dc:title></dc:title>
      </cc:Work>
    </rdf:RDF>
  </metadata>
  <g
     inkscape:label="Layer 1"
     inkscape:groupmode="layer"
     id="layer1"
     transform="translate(0,-884.36218)">
    <path
       style="fill:#000000;stroke:#000000"
       d="m 4.5355263,951.11218 c -1.4695579,0 -2.65625,1.06873 -2.65625,2.375 l 0,29.75 c 0,1.30628 1.1866921,2.375 2.65625,2.375 l 135.0000037,0 c 1.46955,0 2.65625,-1.06872 2.65625,-2.375 l 0,-29.75 c 0,-1.30627 -1.1867,-2.375 -2.65625,-2.375 l -135.0000037,0 z m 88.8437507,2.625 8.718753,0 c 1.46977,0 2.65625,1.03748 2.65625,2.34375 l 0,23.28125 c 0,1.30627 -1.18648,2.375 -2.65625,2.375 l -8.718753,0 c -1.469761,0 -2.625,-1.06873 -2.625,-2.375 l 0,-23.28125 c 0,-1.30627 1.155239,-2.34375 2.625,-2.34375 z m 15.031253,0 8.71875,0 c 1.46976,0 2.65625,1.03748 2.65625,2.34375 l 0,23.28125 c 0,1.30627 -1.18649,2.375 -2.65625,2.375 l -8.71875,0 c -1.46976,0 -2.625,-1.06873 -2.625,-2.375 l 0,-23.28125 c 0,-1.30627 1.15524,-2.34375 2.625,-2.34375 z m -81.031253,0.0312 8.6875,0 c 1.469761,0 2.65625,1.03748 2.65625,2.34375 l 0,23.28125 c 0,1.30628 -1.186489,2.375 -2.65625,2.375 l -8.6875,0 c -1.469761,0 -2.65625,-1.06872 -2.65625,-2.375 l 0,-23.28125 c 0,-1.30627 1.186489,-2.34375 2.65625,-2.34375 z m 15.03125,0 8.6875,0 c 1.469761,0 2.65625,1.03748 2.65625,2.34375 l 0,23.28125 c 0,1.30628 -1.186489,2.375 -2.65625,2.375 l -8.6875,0 c -1.469761,0 -2.65625,-1.06872 -2.65625,-2.375 l 0,-23.28125 c 0,-1.30627 1.186489,-2.34375 2.65625,-2.34375 z m 17.96875,0 8.6875,0 c 1.469761,0 2.65625,1.03748 2.65625,2.34375 l 0,23.28125 c 0,1.30628 -1.186489,2.375 -2.65625,2.375 l -8.6875,0 c -1.469761,0 -2.65625,-1.06872 -2.65625,-2.375 l 0,-23.28125 c 0,-1.30627 1.186489,-2.34375 2.65625,-2.34375 z m 15.03125,0 8.6875,0 c 1.469761,0 2.65625,1.03748 2.65625,2.34375 l 0,23.28125 c 0,1.30628 -1.186489,2.375 -2.65625,2.375 l -8.6875,0 c -1.469761,0 -2.65625,-1.06872 -2.65625,-2.375 l 0,-23.28125 c 0,-1.30627 1.186489,-2.34375 2.65625,-2.34375 z m 13.34375,11.5625 c 0.581849,0 1.0625,0.45756 1.0625,1.03125 0,0.57369 -0.480651,1.03125 -1.0625,1.03125 -0.581861,0 -1.0625,-0.45756 -1.0625,-1.03125 0,-0.57369 0.480639,-1.03125 1.0625,-1.03125 z m -33,0.0312 c 0.581849,0 1.03125,0.45756 1.03125,1.03125 0,0.57369 -0.449401,1.03125 -1.03125,1.03125 -0.581861,0 -1.0625,-0.45756 -1.0625,-1.03125 0,-0.57369 0.480639,-1.03125 1.0625,-1.03125 z m 33,2.6875 c 0.581849,0 1.0625,0.48881 1.0625,1.0625 0,0.57369 -0.480651,1.03125 -1.0625,1.03125 -0.581861,0 -1.0625,-0.45756 -1.0625,-1.03125 0,-0.57369 0.480639,-1.0625 1.0625,-1.0625 z m -33,0.0312 c 0.581849,0 1.03125,0.45756 1.03125,1.03125 0,0.57369 -0.449401,1.0625 -1.03125,1.0625 -0.581861,0 -1.0625,-0.48881 -1.0625,-1.0625 0,-0.57369 0.480639,-1.03125 1.0625,-1.03125 z"
       id="rect3069"
       inkscape:export-xdpi="90"
       inkscape:export-ydpi="90"
       inkscape:connector-curvature="0"
       inkscape:export-filename="/Users/cleigh/Desktop/drawing2xx.png" />
    <rect
       style="fill:none;stroke:#000000;stroke-width:22.15554047;stroke-linecap:butt;stroke-linejoin:miter;stroke-miterlimit:4;stroke-dasharray:none"
       id="rect5608"
       width="121.84447"
       height="145.84447"
       x="11.077771"
       y="895.43994"
       inkscape:export-filename="/Users/cleigh/Desktop/drawing2xx.png"
       inkscape:export-xdpi="90"
       inkscape:export-ydpi="90" />
    <path
       style="fill:#ffffff;stroke:none"
       d="m 22.541377,123.84019 0,-21.76852 49.549304,0 49.549309,0 0,21.76852 0,21.76852 -49.549309,0 -49.549304,0 0,-21.76852 z"
       id="path5680"
       inkscape:connector-curvature="0"
       transform="translate(0,884.36218)"
       inkscape:export-filename="/Users/cleigh/Desktop/drawing2xx.png"
       inkscape:export-xdpi="90"
       inkscape:export-ydpi="90" />
    <path
       style="fill:#ffffff;stroke:none"
       d="M 26.169464,96.233517 C 25.503989,95.845914 25.443846,94.78279 25.443846,83.40692 c 0,-11.839071 0.03653,-12.423511 0.802019,-12.833191 1.152162,-0.616619 10.512034,-0.559198 11.139571,0.06834 0.710722,0.710722 0.710722,24.831012 0,25.541734 -0.622696,0.622696 -10.159645,0.66497 -11.215972,0.04972 z"
       id="path5682"
       inkscape:connector-curvature="0"
       transform="translate(0,884.36218)"
       inkscape:export-filename="/Users/cleigh/Desktop/drawing2xx.png"
       inkscape:export-xdpi="90"
       inkscape:export-ydpi="90" />
    <path
       style="fill:#ffffff;stroke:none"
       d="m 41.022408,96.029793 c -0.562235,-0.562235 -0.651574,-2.292179 -0.651574,-12.616858 0,-10.324679 0.08934,-12.054623 0.651574,-12.616858 0.52212,-0.52212 1.670777,-0.651575 5.781428,-0.651575 4.831003,0 5.167456,0.05369 5.775323,0.921537 0.963269,1.37526 0.963269,23.318532 0,24.693792 -0.607867,0.867851 -0.94432,0.921537 -5.775323,0.921537 -4.110651,0 -5.259308,-0.129455 -5.781428,-0.651575 z"
       id="path5684"
       inkscape:connector-curvature="0"
       transform="translate(0,884.36218)"
       inkscape:export-filename="/Users/cleigh/Desktop/drawing2xx.png"
       inkscape:export-xdpi="90"
       inkscape:export-ydpi="90" />
    <path
       style="fill:#ffffff;stroke:none"
       d="m 59.112495,96.183802 c -0.710722,-0.710722 -0.710722,-24.831012 0,-25.541734 0.332744,-0.332744 2.177182,-0.497566 5.568003,-0.497566 4.056637,0 5.200716,0.130278 5.722012,0.651575 0.562235,0.562235 0.651575,2.292179 0.651575,12.616858 0,10.324679 -0.08934,12.054623 -0.651575,12.616858 -0.521296,0.521297 -1.665375,0.651575 -5.722012,0.651575 -3.390821,0 -5.235259,-0.164822 -5.568003,-0.497566 z"
       id="path5686"
       inkscape:connector-curvature="0"
       transform="translate(0,884.36218)"
       inkscape:export-filename="/Users/cleigh/Desktop/drawing2xx.png"
       inkscape:export-xdpi="90"
       inkscape:export-ydpi="90" />
    <path
       style="fill:#ffffff;stroke:none"
       d="M 74.267534,96.233517 C 73.6022,95.845996 73.541916,94.786044 73.541916,83.475259 c 0,-9.041523 0.13287,-12.468495 0.497566,-12.833191 0.689391,-0.689391 10.754633,-0.689391 11.444024,0 0.364707,0.364707 0.497566,3.793004 0.497566,12.839206 0,11.777453 -0.03666,12.361262 -0.802018,12.770867 -1.031883,0.552246 -9.957551,0.537013 -10.91152,-0.01862 z"
       id="path5688"
       inkscape:connector-curvature="0"
       transform="translate(0,884.36218)"
       inkscape:export-filename="/Users/cleigh/Desktop/drawing2xx.png"
       inkscape:export-xdpi="90"
       inkscape:export-ydpi="90" />
    <path
       style="fill:#ffffff;stroke:none"
       d="m 92.057595,95.923101 c -0.604866,-0.668368 -0.686222,-2.164185 -0.686222,-12.616858 0,-10.227686 0.08961,-11.948202 0.651575,-12.510166 0.522119,-0.52212 1.670776,-0.651575 5.781428,-0.651575 4.831004,0 5.167454,0.05369 5.775324,0.921537 0.96327,1.37526 0.96327,23.318532 0,24.693792 -0.60747,0.867277 -0.94548,0.921537 -5.740677,0.921537 -4.409566,0 -5.187549,-0.102037 -5.781428,-0.758267 z"
       id="path5690"
       inkscape:connector-curvature="0"
       transform="translate(0,884.36218)"
       inkscape:export-filename="/Users/cleigh/Desktop/drawing2xx.png"
       inkscape:export-xdpi="90"
       inkscape:export-ydpi="90" />
    <path
       style="fill:#ffffff;stroke:none"
       d="m 106.94383,95.759831 c -0.54629,-0.779935 -0.64547,-2.677132 -0.64547,-12.346896 0,-9.669764 0.0992,-11.566961 0.64547,-12.346896 0.60787,-0.867851 0.94432,-0.921537 5.77532,-0.921537 4.11065,0 5.25931,0.129455 5.78143,0.651575 0.56215,0.562147 0.65157,2.289029 0.65157,12.582211 0,11.03162 -0.0571,11.982346 -0.75826,12.616858 -0.61774,0.559047 -1.6892,0.686222 -5.78143,0.686222 -4.72075,0 -5.06202,-0.05548 -5.66863,-0.921537 z"
       id="path5692"
       inkscape:connector-curvature="0"
       transform="translate(0,884.36218)"
       inkscape:export-filename="/Users/cleigh/Desktop/drawing2xx.png"
       inkscape:export-xdpi="90"
       inkscape:export-ydpi="90" />
    <path
       style="fill:#ffffff;stroke:none"
       d="m 22.541377,44.229594 0,-21.768523 49.549304,0 49.549309,0 0,21.768523 0,21.768523 -49.549309,0 -49.549304,0 0,-21.768523 z"
       id="path5694"
       inkscape:connector-curvature="0"
       transform="translate(0,884.36218)"
       inkscape:export-filename="/Users/cleigh/Desktop/drawing2xx.png"
       inkscape:export-xdpi="90"
       inkscape:export-ydpi="90" />
    <path
       style="fill:none;stroke:#000000;stroke-width:1px;stroke-linecap:butt;stroke-linejoin:miter;stroke-opacity:1"
       d="M 38.976022,1034.5327 C 39.805299,898.53129 39.805299,898.11665 39.805299,898.11665"
       id="path5698"
       inkscape:connector-curvature="0"
       inkscape:export-filename="/Users/cleigh/Desktop/drawing2xx.png"
       inkscape:export-xdpi="90"
       inkscape:export-ydpi="90" />
    <path
       inkscape:connector-curvature="0"
       id="path5700"
       d="M 55.457904,1035.5693 C 56.287181,899.56789 56.287181,899.15325 56.287181,899.15325"
       style="fill:none;stroke:#000000;stroke-width:1px;stroke-linecap:butt;stroke-linejoin:miter;stroke-opacity:1"
       inkscape:export-filename="/Users/cleigh/Desktop/drawing2xx.png"
       inkscape:export-xdpi="90"
       inkscape:export-ydpi="90" />
    <path
       style="fill:none;stroke:#000000;stroke-width:1px;stroke-linecap:butt;stroke-linejoin:miter;stroke-opacity:1"
       d="M 71.421487,1036.0876 C 72.250764,900.08619 72.250764,899.67155 72.250764,899.67155"
       id="path5702"
       inkscape:connector-curvature="0"
       inkscape:export-filename="/Users/cleigh/Desktop/drawing2xx.png"
       inkscape:export-xdpi="90"
       inkscape:export-ydpi="90" />
    <path
       inkscape:connector-curvature="0"
       id="path5704"
       d="M 88.421667,1037.3315 C 89.250944,901.33011 89.250944,900.91547 89.250944,900.91547"
       style="fill:none;stroke:#000000;stroke-width:1px;stroke-linecap:butt;stroke-linejoin:miter;stroke-opacity:1"
       inkscape:export-filename="/Users/cleigh/Desktop/drawing2xx.png"
       inkscape:export-xdpi="90"
       inkscape:export-ydpi="90" />
    <path
       style="fill:none;stroke:#000000;stroke-width:1px;stroke-linecap:butt;stroke-linejoin:miter;stroke-opacity:1"
       d="m 104.90355,1037.3315 c 0.82928,-136.00139 0.82928,-136.41603 0.82928,-136.41603"
       id="path5706"
       inkscape:connector-curvature="0"
       inkscape:export-filename="/Users/cleigh/Desktop/drawing2xx.png"
       inkscape:export-xdpi="90"
       inkscape:export-ydpi="90" />
    <g
       id="g3922"
       transform="translate(32.936842,10.040539)"
       inkscape:export-filename="/Users/cleigh/Desktop/drawing2xx.png"
       inkscape:export-xdpi="90"
       inkscape:export-ydpi="90">
      <path
         transform="translate(43.142105,881.56218)"
         style="fill:#ffffff;stroke:none"
         d="m 14,74.826317 c 0,0.732504 -0.593812,1.326316 -1.326316,1.326316 -0.732504,0 -1.326316,-0.593812 -1.326316,-1.326316 0,-0.732504 0.593812,-1.326316 1.326316,-1.326316 0.732504,0 1.326316,0.593812 1.326316,1.326316 z"
         id="path3924"
         inkscape:connector-curvature="0" />
      <path
         transform="translate(43.142105,885.02534)"
         style="fill:#ffffff;stroke:none"
         d="m 14,74.826317 c 0,0.732504 -0.593812,1.326316 -1.326316,1.326316 -0.732504,0 -1.326316,-0.593812 -1.326316,-1.326316 0,-0.732504 0.593812,-1.326316 1.326316,-1.326316 0.732504,0 1.326316,0.593812 1.326316,1.326316 z"
         id="path3926"
         inkscape:connector-curvature="0" />
    </g>
    <path
       id="path3878"
       style="fill:#ffffff;stroke:none"
       d="m 57.142105,969.8922 c 0,0.7325 -0.593812,1.32631 -1.326316,1.32631 -0.732504,0 -1.326316,-0.59381 -1.326316,-1.32631 0,-0.73251 0.593812,-1.32632 1.326316,-1.32632 0.732504,0 1.326316,0.59381 1.326316,1.32632 z m 0,-3.46316 c 0,0.7325 -0.593812,1.32631 -1.326316,1.32631 -0.732504,0 -1.326316,-0.59381 -1.326316,-1.32631 0,-0.73251 0.593812,-1.32632 1.326316,-1.32632 0.732504,0 1.326316,0.59381 1.326316,1.32632 z"
       inkscape:connector-curvature="0"
       inkscape:export-filename="/Users/cleigh/Desktop/drawing2xx.png"
       inkscape:export-xdpi="90"
       inkscape:export-ydpi="90" />
  </g>
</svg>
